<?xml version="1.0" encoding="utf-8"?>
<!-- Generator: Adobe Illustrator 22.1.0, SVG Export Plug-In . SVG Version: 6.00 Build 0)  -->
<svg version="1.1" id="レイヤー_1" xmlns="http://www.w3.org/2000/svg" xmlns:xlink="http://www.w3.org/1999/xlink" x="0px"
	 y="0px" viewBox="0 0 153 153" style="enable-background:new 0 0 153 153;" xml:space="preserve">
<style type="text/css">
	.st0{fill:#FFFFFF;}
	.st1{fill:none;stroke:#FFFFFF;stroke-width:3;stroke-miterlimit:10;}
</style>
<g>
	<path class="st0" d="M92.4,83.2c-0.1,0.5-0.3,0.9-0.4,1.4l-0.1,0.2c-0.4,1.2-1,2.2-1.6,3.1c0.7,0.4,1.5,0.9,2.4,1.4l0.2,0.1
		c7.3,3.7,10.6,5.5,12.2,6.9c1.6,1.5,3.2,3.9,4.4,6.8c0,0,0,0.1,0.1,0.1c7.4-0.4,14.2-1.4,20-2.9c1.3-0.3,2.1-1.6,1.9-3
		c-0.9-4.8-3.1-8.7-4.6-10.1c-1.2-1.1-6.6-3.8-11.2-6.2c-3.4-1.7-5.3-3.2-5.8-3.7v-4.5c0.2-0.1,0.5-0.3,0.7-0.5
		c0.7-0.8,1.3-1.6,1.5-2.4c0.6-1.7,1.1-3.7,1.2-4.3c0-0.1,0-0.1,0-0.1c0.2,0.1,0.5,0.1,0.7,0.1c2.4,0,3.4-5,3.6-6.3
		c0.1-1.3-1-2.2-1.5-2.6c0.1-0.2,0.2-0.5,0.3-0.9c0.2-0.7,0.6-1.9,0.9-3.8c0.3-2.1-0.4-4.7-1.7-6.2c-1.7-2-4.3-3.9-5.4-3.9
		c-1.8-3.2-4-5.2-8.2-5.5c-0.3,0-0.5,0-0.8,0h-0.1c-3.5,0-9.5,3.3-11.9,7.5c-0.7,1.4-1.3,2.5-1.7,3.7c-0.1,0.4-0.3,0.9-0.4,1.3
		c0.4,0.5,0.8,1,1.2,1.5c1.7,0.9,3.3,2.2,4.5,3.3c0.4,0.4,0.8,0.8,1.3,1.3l0.3,0.3c0.9,1.1,1.6,2.3,2.1,3.7c0.5,1.4,0.9,3,0.9,4.5
		c0,0.8,0,1.6-0.1,2.3c-0.1,0.8-0.2,1.6-0.4,2.2c0,0.2-0.1,0.4-0.1,0.5c0.8,1.6,0.9,3.1,0.8,4.3C97.1,76.9,95.6,81.2,92.4,83.2z"/>
	<path class="st0" d="M43.4,103.2c1.3-3,2.9-5.4,4.5-6.9c1.5-1.4,4.9-3.2,12.2-6.9l0.2-0.1c0.9-0.5,1.6-0.9,2.3-1.3
		c0,0,0.1,0,0.1-0.1c0,0,0,0,0,0c0,0,0,0,0,0c-0.7-1-1.3-2-1.6-3.1c0,0-0.5-1.6-0.5-1.6c-2.7-1.7-4.6-5.4-5.1-10.6
		c-0.1-1.2,0-2.7,0.7-4.2c-0.1-0.3-0.2-1.3-0.2-1.3c-0.3-1.9-0.3-3.5-0.1-5.1c0-0.2,0.1-0.5,0.1-0.7c0-0.2,0.1-0.4,0.1-0.6
		c0.1-0.2,0.1-0.5,0.2-0.7c0.3-1.1,0.7-2.3,1.3-3.6c0.3-0.7,0.7-1.4,1.1-2.1c0,0,0,0,0-0.1v-0.2l1.1-1.5c1.4-2,3.4-3.7,5.6-5.2
		c-0.2-0.5-0.5-1-0.9-1.5c0-0.1-0.1-0.1-0.1-0.1c-1.7-2-4.3-3.9-5.4-3.9c-1.8-3.2-4-5.2-8.2-5.5c-0.2,0-0.5,0-0.8,0h-0.1
		c-3.5,0-9.5,3.3-11.9,7.5c-2.3,4.3-2.9,6.6-1.7,12c0.1,0.4,0.2,0.7,0.3,0.9c-0.4,0.4-1.5,0.9-1.3,2.2c0.1,1.3,1,6.6,3.4,6.6
		c0.2,0,0.5,0,0.7-0.1c0,0,0,0,0,0c0,0.4,0.3,1.6,0.7,2.8c0.1,0.4,0.3,1,0.5,1.6c0.3,0.8,0.9,1.7,1.6,2.5c0.2,0.2,0.5,0.4,0.7,0.5
		v4.5c-0.5,0.5-2.4,2-5.8,3.7c-4.6,2.3-10,5.1-11.2,6.2c-1.5,1.4-3.8,5.3-4.6,10.1c-0.2,1.3,0.6,2.6,1.9,3
		C29.2,101.9,36,102.9,43.4,103.2C43.4,103.3,43.4,103.2,43.4,103.2z"/>
	<path class="st0" d="M68.7,90.6c-0.5,0.5-2.4,2-5.8,3.7c-4.6,2.4-10,5.1-11.2,6.2c-0.9,0.8-2.1,2.6-3.1,4.9c-0.2,0.5-0.4,1-0.6,1.6
		c-0.2,0.5-0.3,1-0.5,1.6c-0.2,0.7-0.3,1.3-0.5,2c-0.2,1.3,0.6,2.6,1.9,3c7.7,2,17.2,3.1,27.6,3.1c10.3,0,19.9-1.2,27.5-3.1
		c1.3-0.3,2.1-1.6,1.9-3c-0.1-0.7-0.3-1.4-0.5-2c-0.1-0.5-0.3-1.1-0.5-1.6c-0.2-0.6-0.4-1.1-0.6-1.6c-1-2.3-2.1-4-3.1-4.9
		c-1.2-1.1-6.6-3.9-11.2-6.2c-3.4-1.7-5.3-3.2-5.8-3.7v-2.9V86c0.3-0.1,0.5-0.3,0.7-0.5c0,0,0.1-0.1,0.1-0.1
		c0.6-0.7,1.2-1.5,1.4-2.3c0-0.1,0.1-0.2,0.1-0.3c0.6-1.6,1-3.5,1.1-4c0-0.1,0-0.1,0-0.1c0.2,0.1,0.5,0.1,0.7,0.1
		c2.4,0,3.4-5,3.6-6.3c0.1-1.3-1-2.2-1.5-2.6c0.1-0.2,0.2-0.5,0.3-0.9c0,0,0-0.1,0-0.1c0.1-0.5,0.4-1.1,0.5-1.9
		c0.1-0.5,0.2-1.1,0.3-1.8c0.1-0.4,0.1-0.9,0.1-1.3c0-0.9-0.2-1.9-0.6-2.8c-0.3-0.8-0.7-1.5-1.2-2.1l0,0c-0.3-0.4-0.7-0.8-1.1-1.2
		c-1.6-1.5-3.4-2.7-4.3-2.7c-1.8-3.2-4-5.2-8.2-5.5c-0.3,0-0.5,0-0.8,0h-0.1c-3.1,0-8.5,2.7-11.2,6.4c0,0,0,0,0,0
		c-0.3,0.4-0.5,0.7-0.7,1.1c-0.4,0.6-0.7,1.3-1,1.8c-0.4,0.9-0.8,1.8-1,2.7c-0.1,0.4-0.2,0.8-0.3,1.3c-0.2,1.2-0.1,2.5,0.1,4.1v0
		c0.1,0.6,0.2,1.3,0.4,2.1c0,0,0,0,0,0c0.1,0.4,0.2,0.7,0.3,0.9c-0.4,0.3-1.5,0.9-1.3,2.2c0.1,1.3,1,6.6,3.4,6.6
		c0.2,0,0.5,0,0.7-0.1c0,0,0,0,0,0c0,0.4,0.3,1.6,0.7,2.8c0.1,0.4,0.3,0.8,0.4,1.3c0,0.1,0.1,0.2,0.1,0.3c0.3,0.8,0.8,1.6,1.4,2.3
		c0.1,0.1,0.1,0.1,0.2,0.2c0.2,0.2,0.5,0.4,0.7,0.5v1.6V90.6z"/>
</g>
<circle class="st1" cx="76.5" cy="76.5" r="75"/>
<g>
</g>
<g>
</g>
<g>
</g>
<g>
</g>
<g>
</g>
<g>
</g>
<g>
</g>
<g>
</g>
<g>
</g>
<g>
</g>
<g>
</g>
<g>
</g>
<g>
</g>
<g>
</g>
<g>
</g>
</svg>
