<?xml version="1.0" encoding="utf-8"?>
<!-- Generator: Adobe Illustrator 22.1.0, SVG Export Plug-In . SVG Version: 6.00 Build 0)  -->
<svg version="1.1" id="レイヤー_1" xmlns="http://www.w3.org/2000/svg" xmlns:xlink="http://www.w3.org/1999/xlink" x="0px"
	 y="0px" viewBox="0 0 44 44" style="enable-background:new 0 0 44 44;" xml:space="preserve">
<style type="text/css">
	.st0{fill:#FFFFFF;}
	.st1{fill:none;stroke:#FFFFFF;stroke-miterlimit:10;}
</style>
<path class="st0" d="M32,14H12c-1.1,0-2,0.9-2,2v12c0,1.1,0.9,2,2,2h20c1.1,0,2-0.9,2-2V16C34,14.9,33.1,14,32,14z M17.2,24.4
	l-3.5,2c-0.1,0-0.2,0.1-0.2,0.1c-0.2,0-0.3-0.1-0.4-0.3c-0.1-0.2-0.1-0.5,0.2-0.7l3.5-2c0.2-0.1,0.5-0.1,0.7,0.2
	C17.6,24,17.5,24.3,17.2,24.4z M22,24.5c-0.1,0-0.2,0-0.3-0.1l-8.5-5.5c-0.2-0.1-0.3-0.5-0.1-0.7c0.1-0.2,0.5-0.3,0.7-0.1l8.2,5.3
	l8.2-5.3c0.2-0.2,0.5-0.1,0.7,0.1c0.1,0.2,0.1,0.5-0.1,0.7l-8.5,5.5C22.2,24.5,22.1,24.5,22,24.5z M30.9,26.2
	c-0.1,0.2-0.3,0.3-0.4,0.3c-0.1,0-0.2,0-0.2-0.1l-3.5-2c-0.2-0.1-0.3-0.4-0.2-0.7c0.1-0.2,0.4-0.3,0.7-0.2l3.5,2
	C31,25.7,31.1,26,30.9,26.2z"/>
<circle class="st1" cx="22" cy="22" r="21.5"/>
<g>
</g>
<g>
</g>
<g>
</g>
<g>
</g>
<g>
</g>
<g>
</g>
<g>
</g>
<g>
</g>
<g>
</g>
<g>
</g>
<g>
</g>
<g>
</g>
<g>
</g>
<g>
</g>
<g>
</g>
</svg>
