<?xml version="1.0" encoding="utf-8"?>
<!-- Generator: Adobe Illustrator 22.1.0, SVG Export Plug-In . SVG Version: 6.00 Build 0)  -->
<svg version="1.1" id="レイヤー_1" xmlns="http://www.w3.org/2000/svg" xmlns:xlink="http://www.w3.org/1999/xlink" x="0px"
	 y="0px" viewBox="0 0 44 44" style="enable-background:new 0 0 44 44;" xml:space="preserve">
<style type="text/css">
	.st0{fill:none;stroke:#FFFFFF;stroke-miterlimit:10;}
	.st1{fill:#FFFFFF;}
</style>
<circle class="st0" cx="22" cy="22" r="21.5"/>
<path class="st1" d="M32,11H12c-1.1,0-2,0.9-2,2v15c0,1.1,0.9,2,2,2h6.8l-0.7,2H15c-0.3,0-0.5,0.2-0.5,0.5S14.7,33,15,33h3.5h7h0H29
	c0.3,0,0.5-0.2,0.5-0.5S29.3,32,29,32h-3.1l-0.7-2H32c1.1,0,2-0.9,2-2V13C34,11.9,33.1,11,32,11z M22,28.5c-0.6,0-1-0.4-1-1
	s0.4-1,1-1c0.6,0,1,0.4,1,1S22.6,28.5,22,28.5z M32,26H12V13h20V26z"/>
<g>
</g>
<g>
</g>
<g>
</g>
<g>
</g>
<g>
</g>
<g>
</g>
<g>
</g>
<g>
</g>
<g>
</g>
<g>
</g>
<g>
</g>
<g>
</g>
<g>
</g>
<g>
</g>
<g>
</g>
</svg>
