<?xml version="1.0" encoding="utf-8"?>
<!-- Generator: Adobe Illustrator 22.1.0, SVG Export Plug-In . SVG Version: 6.00 Build 0)  -->
<svg version="1.1" id="レイヤー_1" xmlns="http://www.w3.org/2000/svg" xmlns:xlink="http://www.w3.org/1999/xlink" x="0px"
	 y="0px" viewBox="0 0 150 150" style="enable-background:new 0 0 150 150;" xml:space="preserve">
<style type="text/css">
	.st0{fill:#738F11;}
	.st1{fill:#FFFFFF;}
</style>
<g>
	<g>
		<path class="st0" d="M31.6,147.5c-16.1,0-29.1-13.1-29.1-29.1V31.6c0-16.1,13.1-29.1,29.1-29.1h86.8c16.1,0,29.1,13.1,29.1,29.1
			v86.8c0,16.1-13.1,29.1-29.1,29.1H31.6z"/>
		<path class="st1" d="M118.4,5C133.1,5,145,16.9,145,31.6v86.8c0,14.7-11.9,26.6-26.6,26.6H31.6C16.9,145,5,133.1,5,118.4V31.6
			C5,16.9,16.9,5,31.6,5H118.4 M118.4,0H31.6C14.2,0,0,14.2,0,31.6v86.8C0,135.8,14.2,150,31.6,150h86.8c17.5,0,31.6-14.2,31.6-31.6
			V31.6C150,14.2,135.8,0,118.4,0L118.4,0z"/>
	</g>
	<path class="st1" d="M105.7,94.1c-2.9,2.9-7.6,2.9-10.6,0l0,0L75.9,74.8L56.6,94.1h0C53.7,97,49,97,46,94.1l0,0
		c-2.9-2.9-2.9-7.6,0-10.6l0,0L70.6,59c1.4-1.4,3.3-2.2,5.3-2.2l0,0c2,0,3.9,0.8,5.3,2.2l0,0l24.6,24.6c1.5,1.5,2.2,3.4,2.2,5.3l0,0
		C107.9,90.7,107.2,92.6,105.7,94.1L105.7,94.1z"/>
</g>
<g>
</g>
<g>
</g>
<g>
</g>
<g>
</g>
<g>
</g>
<g>
</g>
<g>
</g>
<g>
</g>
<g>
</g>
<g>
</g>
<g>
</g>
<g>
</g>
<g>
</g>
<g>
</g>
<g>
</g>
</svg>
